<svg width="220" height="220" viewBox="0 0 220 220" fill="none" xmlns="http://www.w3.org/2000/svg">
<g filter="url(#filter0_d_2_22)">
<rect x="10" y="6" width="200" height="200" rx="25" fill="#1E1364"/>
<path d="M165 90.3753V93.6253C165 96.3177 162.799 98.5003 160.083 98.5003H158.444L153.095 135.629C152.403 140.432 148.254 144 143.361 144H68.6395C63.746 144 59.5971 140.432 58.9049 135.629L53.5556 98.5003H51.9167C49.2012 98.5003 47 96.3177 47 93.6253V90.3753C47 87.6829 49.2012 85.5004 51.9167 85.5004H65.7122L87.5873 55.6775C89.7168 52.7745 93.8165 52.1324 96.7448 54.2439C99.6729 56.3554 100.32 60.4205 98.1907 63.3237L81.9241 85.5004H130.076L113.809 63.3235C111.68 60.4205 112.327 56.3552 115.255 54.2437C118.183 52.1322 122.283 52.7741 124.413 55.6773L146.288 85.5004H160.083C162.799 85.5004 165 87.6829 165 90.3753ZM110.917 126.125V103.375C110.917 100.683 108.715 98.5003 106 98.5003C103.285 98.5003 101.083 100.683 101.083 103.375V126.125C101.083 128.818 103.285 131 106 131C108.715 131 110.917 128.818 110.917 126.125ZM133.861 126.125V103.375C133.861 100.683 131.66 98.5003 128.944 98.5003C126.229 98.5003 124.028 100.683 124.028 103.375V126.125C124.028 128.818 126.229 131 128.944 131C131.66 131 133.861 128.818 133.861 126.125ZM87.9722 126.125V103.375C87.9722 100.683 85.771 98.5003 83.0556 98.5003C80.3401 98.5003 78.1389 100.683 78.1389 103.375V126.125C78.1389 128.818 80.3401 131 83.0556 131C85.771 131 87.9722 128.818 87.9722 126.125Z" fill="#FFD000"/>
</g>
<defs>
<filter id="filter0_d_2_22" x="0" y="0" width="220" height="220" filterUnits="userSpaceOnUse" color-interpolation-filters="sRGB">
<feFlood flood-opacity="0" result="BackgroundImageFix"/>
<feColorMatrix in="SourceAlpha" type="matrix" values="0 0 0 0 0 0 0 0 0 0 0 0 0 0 0 0 0 0 127 0" result="hardAlpha"/>
<feOffset dy="4"/>
<feGaussianBlur stdDeviation="5"/>
<feComposite in2="hardAlpha" operator="out"/>
<feColorMatrix type="matrix" values="0 0 0 0 0 0 0 0 0 0 0 0 0 0 0 0 0 0 0.25 0"/>
<feBlend mode="normal" in2="BackgroundImageFix" result="effect1_dropShadow_2_22"/>
<feBlend mode="normal" in="SourceGraphic" in2="effect1_dropShadow_2_22" result="shape"/>
</filter>
</defs>
</svg>
